<svg width="390" height="355" viewBox="0 0 390 355" fill="none" xmlns="http://www.w3.org/2000/svg">
<g clip-path="url(#clip0_17_301)">
<path d="M621 298.269C621 133.539 476.645 0 298.574 0C120.502 0 -23.8542 133.539 -23.8542 298.269H621Z" fill="#C7E1E9"/>
<path d="M396.763 142.113C396.763 142.26 396.708 142.401 396.61 142.509C396.512 142.617 396.377 142.684 396.232 142.697L367.493 145.148L364.858 148.689C364.238 149.521 363.436 150.196 362.514 150.661C361.593 151.126 360.577 151.368 359.547 151.368H305.545C302.384 151.368 300.92 147.399 303.307 145.308L270.746 142.543C270.62 142.531 270.504 142.473 270.419 142.379C270.334 142.286 270.286 142.163 270.286 142.036C270.286 141.969 270.299 141.903 270.324 141.842C270.35 141.78 270.387 141.724 270.433 141.677C270.48 141.63 270.536 141.593 270.597 141.567C270.658 141.542 270.723 141.529 270.789 141.529H360.526C362.78 141.532 364.986 140.859 366.862 139.593L372.035 136.104C372.445 135.828 372.926 135.68 373.418 135.68H374.548L370.193 141.532H396.192C396.343 141.534 396.488 141.596 396.595 141.704C396.702 141.813 396.762 141.96 396.763 142.113Z" fill="white"/>
<path d="M270.29 142.039C270.29 142.166 270.337 142.289 270.422 142.383C270.508 142.477 270.624 142.535 270.75 142.546L303.307 145.311L305.492 143.421L270.29 142.039Z" fill="#D8E9F1"/>
<path d="M396.763 142.113C396.763 142.259 396.709 142.401 396.611 142.509C396.513 142.617 396.378 142.684 396.234 142.697L341.352 147.373L338.309 144.677L396.763 142.113Z" fill="#D8E9F1"/>
<path d="M292.002 146.12C292.002 148.383 290.492 149.519 288.083 149.519C287.038 149.519 286.188 149.289 285.555 148.881C285.8 149.012 286.073 149.08 286.351 149.081C287.557 149.081 288.538 147.754 288.538 146.118C288.538 144.483 287.557 143.155 286.351 143.155C286.073 143.157 285.801 143.226 285.555 143.356V143.347C286.185 142.943 287.026 142.718 288.083 142.718C290.577 142.716 292.002 143.968 292.002 146.12Z" fill="white"/>
<path d="M286.349 149.081C287.558 149.081 288.538 147.755 288.538 146.118C288.538 144.482 287.558 143.155 286.349 143.155C285.14 143.155 284.161 144.482 284.161 146.118C284.161 147.755 285.14 149.081 286.349 149.081Z" fill="#98C8DB"/>
<path d="M344.782 146.12C344.782 148.383 343.271 149.519 340.861 149.519C339.817 149.519 338.967 149.289 338.335 148.881C338.58 149.011 338.851 149.08 339.128 149.081C340.338 149.081 341.318 147.754 341.318 146.118C341.318 144.483 340.338 143.155 339.128 143.155C338.851 143.157 338.58 143.226 338.335 143.356V143.347C338.964 142.943 339.806 142.718 340.861 142.718C343.357 142.716 344.782 143.968 344.782 146.12Z" fill="white"/>
<path d="M339.129 149.081C340.338 149.081 341.318 147.755 341.318 146.118C341.318 144.482 340.338 143.155 339.129 143.155C337.92 143.155 336.94 144.482 336.94 146.118C336.94 147.755 337.92 149.081 339.129 149.081Z" fill="#98C8DB"/>
<path d="M311.171 145.065H303.563L305.502 143.421H310.301C310.496 143.421 310.686 143.482 310.844 143.595C311.003 143.709 311.124 143.869 311.189 144.054L311.422 144.714C311.436 144.754 311.44 144.797 311.434 144.839C311.428 144.881 311.412 144.921 311.387 144.956C311.363 144.99 311.33 145.018 311.292 145.037C311.255 145.056 311.213 145.066 311.171 145.065Z" fill="#98C8DB"/>
<path d="M318.01 143.421H317.847C317.6 143.421 317.4 143.623 317.4 143.873V144.613C317.4 144.863 317.6 145.065 317.847 145.065H318.01C318.257 145.065 318.458 144.863 318.458 144.613V143.873C318.458 143.623 318.257 143.421 318.01 143.421Z" fill="#98C8DB"/>
<path d="M320.964 143.421H320.801C320.554 143.421 320.354 143.623 320.354 143.873V144.613C320.354 144.863 320.554 145.065 320.801 145.065H320.964C321.211 145.065 321.411 144.863 321.411 144.613V143.873C321.411 143.623 321.211 143.421 320.964 143.421Z" fill="#98C8DB"/>
<path d="M323.916 143.421H323.754C323.506 143.421 323.306 143.623 323.306 143.873V144.613C323.306 144.863 323.506 145.065 323.754 145.065H323.916C324.163 145.065 324.364 144.863 324.364 144.613V143.873C324.364 143.623 324.163 143.421 323.916 143.421Z" fill="#98C8DB"/>
<path d="M326.87 143.421H326.708C326.461 143.421 326.26 143.623 326.26 143.873V144.613C326.26 144.863 326.461 145.065 326.708 145.065H326.87C327.117 145.065 327.318 144.863 327.318 144.613V143.873C327.318 143.623 327.117 143.421 326.87 143.421Z" fill="#98C8DB"/>
<path d="M329.824 143.421H329.662C329.414 143.421 329.214 143.623 329.214 143.873V144.613C329.214 144.863 329.414 145.065 329.662 145.065H329.824C330.071 145.065 330.272 144.863 330.272 144.613V143.873C330.272 143.623 330.071 143.421 329.824 143.421Z" fill="#98C8DB"/>
<path d="M332.778 143.421H332.615C332.368 143.421 332.168 143.623 332.168 143.873V144.613C332.168 144.863 332.368 145.065 332.615 145.065H332.778C333.025 145.065 333.226 144.863 333.226 144.613V143.873C333.226 143.623 333.025 143.421 332.778 143.421Z" fill="#98C8DB"/>
<path d="M465.692 226.445L453.085 240.656C451.96 241.925 450.392 242.703 448.711 242.827L171.974 263.379C175.31 255.582 177.249 247.247 177.701 238.763H446.16C448.024 238.763 449.827 238.095 451.25 236.879L463.461 226.441L465.692 226.445Z" fill="white"/>
<path d="M450.273 242.628L171.974 263.378C174.002 258.65 175.515 253.714 176.485 248.655L450.273 242.628Z" fill="#E2EFF4"/>
<path d="M214.026 293.534C225.986 293.534 235.682 283.729 235.682 271.635C235.682 259.54 225.986 249.735 214.026 249.735C202.065 249.735 192.369 259.54 192.369 271.635C192.369 283.729 202.065 293.534 214.026 293.534Z" fill="white"/>
<path d="M214.064 288.598C223.307 288.598 230.8 281.021 230.8 271.674C230.8 262.327 223.307 254.75 214.064 254.75C204.821 254.75 197.328 262.327 197.328 271.674C197.328 281.021 204.821 288.598 214.064 288.598Z" fill="#98C8DB"/>
<path d="M214.064 274.349C215.525 274.349 216.709 273.151 216.709 271.674C216.709 270.197 215.525 268.999 214.064 268.999C212.604 268.999 211.419 270.197 211.419 271.674C211.419 273.151 212.604 274.349 214.064 274.349Z" stroke="white" stroke-width="5" stroke-miterlimit="10"/>
<path d="M56.9329 263.357L-20.8077 257.582C-20.2975 254.062 -19.7207 250.561 -19.0772 247.08C-18.5669 244.293 -18.0129 241.521 -17.4152 238.763H51.2115C51.6646 247.239 53.6018 255.566 56.9329 263.357Z" fill="white"/>
<path d="M56.9329 263.357L-20.8077 257.582C-20.2975 254.062 -19.7207 250.561 -19.0772 247.08L52.4289 248.649C53.3983 253.702 54.9085 258.634 56.9329 263.357Z" fill="#E2EFF4"/>
<path d="M15.181 293.534C27.1414 293.534 36.8372 283.729 36.8372 271.635C36.8372 259.54 27.1414 249.735 15.181 249.735C3.22059 249.735 -6.47522 259.54 -6.47522 271.635C-6.47522 283.729 3.22059 293.534 15.181 293.534Z" fill="white"/>
<path d="M15.1422 288.598C24.3852 288.598 31.8782 281.021 31.8782 271.674C31.8782 262.327 24.3852 254.75 15.1422 254.75C5.8992 254.75 -1.59375 262.327 -1.59375 271.674C-1.59375 281.021 5.8992 288.598 15.1422 288.598Z" fill="#98C8DB"/>
<path d="M15.1422 274.349C16.603 274.349 17.7873 273.151 17.7873 271.674C17.7873 270.197 16.603 268.999 15.1422 268.999C13.6813 268.999 12.4971 270.197 12.4971 271.674C12.4971 273.151 13.6813 274.349 15.1422 274.349Z" stroke="white" stroke-width="5" stroke-miterlimit="10"/>
<path d="M121.308 166.888H107.609L113.149 84.7729C113.19 84.4524 113.346 84.1581 113.586 83.9449C113.826 83.7316 114.135 83.6141 114.455 83.6141C114.775 83.6141 115.083 83.7316 115.324 83.9449C115.564 84.1581 115.719 84.4524 115.761 84.7729L121.308 166.888Z" fill="white"/>
<path d="M239.61 182.868L239.586 184.849L166.882 196.236C165.48 194.008 163.951 191.865 162.302 189.817L239.61 182.868Z" fill="white"/>
<path d="M66.6676 189.745C65.0289 191.781 63.5067 193.91 62.1084 196.122L-9.83636 184.854L-9.86023 182.873L66.6676 189.745Z" fill="white"/>
<path d="M114.459 166.251V83.6127C114.779 83.6116 115.088 83.7289 115.329 83.9426C115.57 84.1563 115.725 84.4515 115.765 84.7728L121.308 166.887L114.459 166.251Z" fill="#E2EFF4"/>
<path d="M114.459 303.067C149.449 303.067 177.814 272.439 177.814 234.658C177.814 196.877 149.449 166.249 114.459 166.249C79.4681 166.249 51.1027 196.877 51.1027 234.658C51.1027 272.439 79.4681 303.067 114.459 303.067Z" fill="#E2EFF4"/>
<path d="M171.865 205.683C168.824 237.552 128.372 266.36 114.457 266.36C99.6681 266.36 60.0361 237.558 57.0464 205.697C67.1435 182.393 89.0563 166.251 114.457 166.251C139.858 166.251 161.765 182.393 171.865 205.683Z" fill="white"/>
<path d="M86.9035 204.964L86.896 216.378L74.5536 220.411L82.9574 207.15C83.3816 206.481 83.9653 205.93 84.6549 205.549C85.3444 205.168 86.1176 204.968 86.9035 204.968V204.964Z" fill="#98C8DB"/>
<path d="M114.585 204.964H88.649V216.375H114.585V204.964Z" fill="#98C8DB"/>
<path d="M142.264 204.964H116.505V216.375H142.264V204.964Z" fill="#98C8DB"/>
<path d="M144.132 204.964V216.37L156.534 220.423L148.205 207.162C147.782 206.488 147.197 205.934 146.506 205.549C145.814 205.165 145.038 204.964 144.249 204.964H144.132Z" fill="#98C8DB"/>
<path d="M299.187 0V298.256H297.953V0H299.187Z" fill="white"/>
<path d="M584.644 160.547H12.5061C12.7403 160.129 12.9775 159.714 13.2133 159.298H583.937C584.173 159.714 584.41 160.129 584.644 160.547Z" fill="white"/>
<path d="M57.37 100.333V298.265H56.1362V101.627C56.545 101.196 56.9583 100.764 57.37 100.333Z" fill="white"/>
<path d="M137.978 39.5743V298.27H136.743V40.2366C137.155 40.0133 137.565 39.7946 137.978 39.5743Z" fill="white"/>
<path d="M137.978 171.142V255.589C137.565 255.851 137.155 256.106 136.743 256.358V170.644C137.156 170.804 137.568 170.971 137.978 171.142Z" fill="#D8E9F1"/>
<path d="M218.583 9.25241V298.269H217.349V9.54659C217.76 9.44702 218.177 9.35349 218.583 9.25241Z" fill="white"/>
<path d="M379.798 9.54659V298.224H378.563V9.25241C378.976 9.35349 379.386 9.44702 379.798 9.54659Z" fill="white"/>
<path d="M621 298.269H-23.8542V321.902H621V298.269Z" fill="white"/>
<path d="M-24.5598 322.349H617.473" stroke="#D8E9F1" stroke-width="5" stroke-miterlimit="10" stroke-linecap="round"/>
<path d="M617.915 322.349C617.915 322.469 617.868 322.584 617.784 322.669C617.7 322.754 617.586 322.801 617.467 322.801H-24.5524C-24.6561 322.783 -24.7501 322.728 -24.8179 322.647C-24.8856 322.565 -24.9227 322.462 -24.9227 322.355C-24.9227 322.249 -24.8856 322.146 -24.8179 322.064C-24.7501 321.983 -24.6561 321.928 -24.5524 321.91H617.481C617.595 321.913 617.703 321.96 617.784 322.042C617.865 322.124 617.912 322.233 617.915 322.349Z" fill="#D8E9F1"/>
<path d="M299.355 298.269L247.26 321.902L245.297 322.794H243.144L245.107 321.902L297.2 298.269H299.355Z" fill="#D8E9F1"/>
<path d="M57.4462 298.269L5.58374 321.902L3.62788 322.794H1.48254L3.43841 321.902L55.3008 298.269H57.4462Z" fill="#D8E9F1"/>
<path d="M138.175 298.269L86.065 321.902L84.1002 322.794H81.9444L83.9092 321.902L136.016 298.269H138.175Z" fill="#D8E9F1"/>
<path d="M218.755 298.269L166.276 321.902L164.297 322.794H162.129L164.107 321.902L216.587 298.269H218.755Z" fill="#D8E9F1"/>
<path d="M379.92 298.269L327.691 321.902L325.72 322.794H323.56L325.529 321.902L377.759 298.269H379.92Z" fill="#D8E9F1"/>
<path d="M202.107 273.848H159.575C161.84 273.848 164.051 273.144 165.908 271.83C167.764 270.517 169.177 268.659 169.954 266.507L179.615 239.335L189.697 265.887C190.474 268.038 191.887 269.897 193.743 271.21C195.599 272.523 197.81 273.227 200.075 273.228H201.698L202.107 273.848Z" fill="#A74602" stroke="#A74602" stroke-width="7" stroke-linecap="round" stroke-linejoin="round"/>
<path d="M313.545 273.22H200.076C197.811 273.22 195.6 272.516 193.743 271.203C191.887 269.89 190.474 268.031 189.697 265.879L179.928 238.842H276.006C277.074 238.842 278.116 239.174 278.991 239.793C279.866 240.412 280.532 241.288 280.898 242.302L289.417 265.879C289.97 267.415 290.851 268.809 291.996 269.963C293.447 270.756 295.07 271.171 296.719 271.17H311.489C312.029 271.169 312.548 271.385 312.932 271.768C313.316 272.152 313.535 272.674 313.54 273.22H313.545Z" fill="#F3B304"/>
<path d="M179.354 238.816L169.306 266.627C168.608 268.56 167.339 270.229 165.672 271.409C164.004 272.588 162.018 273.22 159.983 273.22H146.295C146.302 272.674 146.521 272.153 146.905 271.769C147.289 271.385 147.807 271.17 148.347 271.17H157.956C159.991 271.17 161.977 270.538 163.644 269.359C165.312 268.179 166.581 266.51 167.279 264.577L175.633 241.445C175.912 240.674 176.417 240.009 177.082 239.538C177.748 239.068 178.54 238.816 179.351 238.816H179.354Z" fill="#F3B304"/>
<path d="M313.237 273.848H198.315" stroke="#A74602" stroke-width="7" stroke-miterlimit="10" stroke-linecap="round"/>
<path d="M250.387 273.848C248.122 273.848 245.911 273.144 244.055 271.831C242.198 270.518 240.786 268.66 240.008 266.508L230.239 239.469" stroke="#A74602" stroke-width="7" stroke-miterlimit="10" stroke-linecap="round"/>
<path d="M275.543 273.848C273.278 273.848 271.067 273.144 269.21 271.831C267.354 270.518 265.941 268.66 265.163 266.508L255.396 239.469" stroke="#A74602" stroke-width="7" stroke-miterlimit="10" stroke-linecap="round"/>
<path d="M225.233 273.848C222.967 273.848 220.756 273.144 218.899 271.831C217.043 270.518 215.63 268.66 214.852 266.508L205.085 239.469" stroke="#A74602" stroke-width="7" stroke-miterlimit="10" stroke-linecap="round"/>
<path d="M157.309 303.127C157.309 287.508 167.203 274.847 179.409 274.847C191.616 274.847 201.512 287.508 201.512 303.127" stroke="#A74602" stroke-width="7" stroke-miterlimit="10"/>
<path d="M265.106 303.127C265.106 287.508 275.002 274.847 287.208 274.847C299.415 274.847 309.311 287.508 309.311 303.127" stroke="#A74602" stroke-width="7" stroke-miterlimit="10"/>
<path d="M86.069 355H375.451" stroke="#D8E9F1" stroke-width="5" stroke-miterlimit="10" stroke-linecap="round"/>
<path d="M345.848 342.529H285.624L254.028 211.55H321.922C325.445 211.55 328.866 212.746 331.636 214.947C334.407 217.147 336.367 220.225 337.202 223.686L361.126 322.855C361.691 325.196 361.723 327.636 361.22 329.991C360.716 332.346 359.69 334.554 358.218 336.449C356.747 338.344 354.868 339.876 352.725 340.929C350.582 341.983 348.231 342.53 345.848 342.529Z" fill="#F3B304"/>
<path d="M255.1 211.55H322.996C326.519 211.55 329.939 212.747 332.71 214.947C335.48 217.148 337.439 220.225 338.274 223.686L362.2 322.855" stroke="white" stroke-width="5" stroke-miterlimit="10" stroke-linecap="round"/>
<path d="M269.346 211.696C272.911 211.696 276.374 212.906 279.178 215.132C281.983 217.359 283.967 220.473 284.812 223.976L308.673 323.643C309.244 326.012 309.276 328.481 308.765 330.864C308.255 333.247 307.216 335.482 305.726 337.399C304.236 339.317 302.336 340.867 300.167 341.933C297.998 342.999 295.618 343.553 293.207 343.552" stroke="white" stroke-width="5" stroke-miterlimit="10" stroke-linecap="round"/>
<path d="M295.54 223.976L319.401 323.643" stroke="white" stroke-width="5" stroke-miterlimit="10" stroke-linecap="round"/>
<path d="M303.942 223.976L327.804 323.643" stroke="white" stroke-width="5" stroke-miterlimit="10" stroke-linecap="round"/>
<path d="M312.346 223.976L336.206 323.643" stroke="white" stroke-width="5" stroke-miterlimit="10" stroke-linecap="round"/>
<path d="M320.749 223.976L344.61 323.643" stroke="white" stroke-width="5" stroke-miterlimit="10" stroke-linecap="round"/>
<path d="M329.151 223.976L353.013 323.643" stroke="white" stroke-width="5" stroke-miterlimit="10" stroke-linecap="round"/>
<path d="M293.65 353.169C295.647 353.169 297.265 351.533 297.265 349.514C297.265 347.495 295.647 345.858 293.65 345.858C291.654 345.858 290.035 347.495 290.035 349.514C290.035 351.533 291.654 353.169 293.65 353.169Z" stroke="#505168" stroke-width="5" stroke-linecap="round" stroke-linejoin="round"/>
<path d="M341.126 353.169C343.122 353.169 344.74 351.533 344.74 349.514C344.74 347.495 343.122 345.858 341.126 345.858C339.129 345.858 337.511 347.495 337.511 349.514C337.511 351.533 339.129 353.169 341.126 353.169Z" stroke="#505168" stroke-width="5" stroke-linecap="round" stroke-linejoin="round"/>
<path d="M285.233 341.724L247.11 182.949C246.848 181.864 246.833 180.732 247.067 179.639C247.302 178.547 247.778 177.523 248.461 176.644C249.144 175.765 250.015 175.054 251.01 174.566C252.004 174.078 253.095 173.824 254.2 173.824H265.761C267.763 173.825 269.707 174.507 271.278 175.761C272.85 177.015 273.958 178.768 274.424 180.737L281.219 209.644" stroke="#505168" stroke-width="5" stroke-linecap="round" stroke-linejoin="round"/>
<path d="M246.557 353.924H197.665L210.358 336.54C210.358 336.54 222.989 343.79 250.175 342.781H250.262L251.435 347.653C251.614 348.4 251.623 349.178 251.461 349.928C251.3 350.679 250.971 351.382 250.502 351.986C250.032 352.59 249.433 353.078 248.75 353.414C248.066 353.75 247.317 353.924 246.557 353.924Z" fill="#505168"/>
<path d="M131.753 336.562C132.658 337.057 145.82 344.083 175.065 342.797V349.763C175.065 351.826 173.339 353.496 171.209 353.496H120.815L131.753 336.562Z" fill="#505168"/>
<path d="M249.409 342.864H249.324C223.396 343.826 211.351 336.908 211.351 336.908L174.244 201.346V342.792C146.241 344.078 133.321 337.051 132.456 336.556V121.666H196.117L247.973 336.913L249.409 342.864Z" fill="white" stroke="#505168" stroke-width="5" stroke-linejoin="round"/>
<path d="M174.247 201.352V157.297L182.251 154.906" stroke="#505168" stroke-width="5" stroke-linecap="round" stroke-linejoin="round"/>
<path d="M267.293 183.467L253.727 183.848C253.137 183.865 252.557 183.7 252.062 183.374C251.568 183.048 251.183 182.578 250.96 182.026L250.03 179.736L242.869 179.64C242.026 179.627 241.201 179.385 240.484 178.937C239.766 178.49 239.181 177.855 238.792 177.098L218.01 133.456L217.613 132.627C216.372 128.869 221.441 123.878 228.258 121.566C235.075 119.254 241.624 120.416 242.874 124.176L256.738 164.014L260.077 164.088C261.493 164.105 262.871 164.556 264.028 165.383C265.185 166.21 266.066 167.373 266.555 168.717L270.268 178.99C270.444 179.484 270.503 180.013 270.439 180.534C270.375 181.055 270.191 181.554 269.901 181.99C269.612 182.426 269.225 182.787 268.771 183.043C268.318 183.3 267.812 183.445 267.293 183.467Z" fill="#A74602"/>
<path d="M253.245 164.003L260.09 164.078" stroke="#59221D" stroke-width="4" stroke-miterlimit="10" stroke-linecap="round"/>
<path d="M263.257 182.869C263.778 182.851 264.288 182.708 264.744 182.451C265.201 182.195 265.591 181.834 265.882 181.396C266.174 180.958 266.358 180.457 266.422 179.933C266.485 179.409 266.424 178.877 266.245 178.382L264.192 172.702" stroke="#59221D" stroke-width="4" stroke-miterlimit="10" stroke-linecap="round"/>
<path d="M258.775 182.955C259.296 182.937 259.806 182.793 260.263 182.537C260.719 182.281 261.109 181.919 261.4 181.482C261.692 181.044 261.877 180.542 261.94 180.019C262.003 179.495 261.943 178.963 261.764 178.467L259.71 172.788" stroke="#59221D" stroke-width="4" stroke-miterlimit="10" stroke-linecap="round"/>
<path d="M254.459 183.096C254.981 183.078 255.492 182.935 255.948 182.679C256.405 182.423 256.795 182.062 257.087 181.624C257.379 181.186 257.563 180.684 257.626 180.16C257.689 179.636 257.628 179.104 257.449 178.608L255.395 172.929" stroke="#59221D" stroke-width="4" stroke-miterlimit="10" stroke-linecap="round"/>
<path d="M250.386 179.236V177.853C250.386 175.503 248.143 173.595 245.819 173.595L244.583 170.277" stroke="#59221D" stroke-width="4" stroke-miterlimit="10" stroke-linecap="round"/>
<path d="M116.889 172.21L79.1433 166.427C78.2074 166.283 77.3337 166.934 77.1919 167.881L75.2567 180.796C75.1149 181.742 75.7587 182.626 76.6946 182.769L114.44 188.553C115.376 188.696 116.249 188.045 116.391 187.098L118.326 174.183C118.468 173.237 117.824 172.353 116.889 172.21Z" fill="white"/>
<path d="M79.8123 164.716L80.9909 164.896L78.5736 181.21L77.3951 181.031C77.1073 180.98 76.8322 180.872 76.5856 180.714C76.339 180.555 76.1257 180.349 75.958 180.107C75.7904 179.865 75.6716 179.592 75.6085 179.304C75.5455 179.015 75.5393 178.717 75.5904 178.426L77.3322 166.66C77.4079 166.071 77.7113 165.535 78.1759 165.171C78.6406 164.807 79.2289 164.643 79.8123 164.716Z" fill="#F3B304"/>
<path d="M118.421 172.896L116.679 184.661C116.643 184.955 116.55 185.238 116.406 185.495C116.262 185.752 116.069 185.978 115.838 186.159C115.607 186.341 115.344 186.475 115.062 186.553C114.78 186.632 114.486 186.653 114.196 186.616L113.178 186.461L115.596 170.147L116.613 170.302C117.192 170.405 117.707 170.736 118.046 171.222C118.384 171.708 118.519 172.309 118.421 172.896Z" fill="#F3B304"/>
<path d="M127.119 127.033L108.798 185.198C108.117 187.354 105.899 188.792 103.466 188.64L90.3402 187.86C89.9153 187.841 89.5012 187.719 89.1332 187.503C88.7652 187.287 88.4541 186.985 88.2264 186.622L84.0646 180.19C83.5214 179.293 83.2447 178.258 83.2675 177.207C83.2903 176.155 83.6116 175.133 84.1931 174.261L90.8761 164.246L100.909 121.599C102.965 118.751 108.946 117.305 115.287 118.389C122.662 119.65 127.844 123.203 127.119 127.033Z" fill="#A74602"/>
<path d="M88.7706 186.835L89.3527 177.95" stroke="#59221D" stroke-width="4" stroke-miterlimit="10" stroke-linecap="round"/>
<path d="M93.7966 187.584L94.379 178.362" stroke="#59221D" stroke-width="4" stroke-miterlimit="10" stroke-linecap="round"/>
<path d="M99.0084 188.013L99.5908 178.794" stroke="#59221D" stroke-width="4" stroke-miterlimit="10" stroke-linecap="round"/>
<path d="M103.594 188.131L104.177 178.91" stroke="#59221D" stroke-width="4" stroke-miterlimit="10" stroke-linecap="round"/>
<path d="M153.831 38.0697V22.9195L170.482 22.0153L178.384 38.0697H153.831Z" fill="#A74602"/>
<path d="M151.037 18.4786L149.475 17.6187C149.356 17.5529 149.25 17.464 149.165 17.357C149.079 17.25 149.015 17.127 148.976 16.995C148.938 16.8631 148.925 16.7247 148.94 16.5878C148.954 16.451 148.995 16.3183 149.06 16.1974L153.298 8.36093C153.571 7.85059 153.962 7.41513 154.439 7.0923C154.915 6.76947 155.462 6.56899 156.033 6.50825C157.701 6.32022 158.521 7.16636 158.521 7.16636L162.59 10.4431C163.248 10.9715 163.718 11.7016 163.929 12.5235C164.141 13.3454 164.082 14.2145 163.763 15.0001L162.237 18.769C161.915 19.5292 161.327 20.1427 160.585 20.4925C159.844 20.8424 159.001 20.9041 158.218 20.6659L151.037 18.4786Z" fill="#A74602"/>
<path d="M157.944 11.7206L155.437 10.6643" stroke="#59221D" stroke-width="4" stroke-miterlimit="10" stroke-linecap="round"/>
<path d="M156.185 14.6188C156.483 13.9205 156.384 13.2058 155.964 13.0224C155.543 12.8391 154.961 13.2566 154.663 13.9549C154.365 14.6532 154.464 15.3679 154.885 15.5513C155.305 15.7346 155.887 15.3171 156.185 14.6188Z" fill="#59221D"/>
<path d="M170.941 24.3822C170.378 24.7488 169.734 24.9693 169.066 25.0243C168.398 25.0792 167.727 24.967 167.113 24.6975L164.98 23.7684" stroke="#59221D" stroke-width="4" stroke-miterlimit="10" stroke-linecap="round"/>
<path d="M167.441 24.0448L165.311 23.1157L167.2 17.3338C167.299 17.0276 167.462 16.7467 167.678 16.5108C167.895 16.2749 168.16 16.0897 168.455 15.9681C168.749 15.8464 169.067 15.7913 169.385 15.8066C169.703 15.8218 170.014 15.907 170.296 16.0563L170.75 16.2914C171.242 16.5065 171.688 16.8177 172.062 17.207C172.435 17.5964 172.729 18.0563 172.927 18.5606C173.125 19.0649 173.223 19.6037 173.215 20.1461C173.207 20.6885 173.093 21.2241 172.88 21.7221L172.812 21.888C172.379 22.8913 171.572 23.681 170.566 24.085C169.56 24.4891 168.436 24.4746 167.441 24.0448Z" fill="#A74602"/>
<path d="M167.84 19.6704C168.118 19.0396 168.631 18.5449 169.268 18.2939C169.904 18.0428 170.612 18.0556 171.239 18.3293" stroke="#59221D" stroke-width="4" stroke-miterlimit="10" stroke-linecap="round"/>
<path d="M170.296 16.0564C170.014 15.9071 169.703 15.8218 169.385 15.8066C169.067 15.7913 168.749 15.8464 168.455 15.9681C168.16 16.0897 167.895 16.275 167.678 16.5109C167.462 16.7468 167.299 17.0276 167.2 17.3339L164.693 25.0431C163.522 26.5501 161.094 27.0174 159.114 26.9344L153.282 26.7824C152.649 26.7653 152.03 26.5918 151.479 26.2771C150.929 25.9623 150.462 25.516 150.121 24.9769C149.78 24.4379 149.575 23.8226 149.523 23.1849C149.472 22.5471 149.575 21.9063 149.825 21.3184L151.039 18.4703L158.209 20.6576C158.993 20.8956 159.836 20.8335 160.578 20.4832C161.319 20.1328 161.907 19.5186 162.229 18.7579L163.755 14.9918C164.074 14.2063 164.132 13.3371 163.921 12.5152C163.709 11.6933 163.239 10.9632 162.582 10.4348L158.513 7.15812C157.893 6.70331 157.145 6.46298 156.379 6.47294C155.613 6.48291 154.871 6.74262 154.263 7.21341C152.166 2.82235 156.577 1.58634 158.365 2.49055C159.664 3.14865 170.766 9.85691 171.433 11.8229C171.83 12.9815 171.589 14.7153 171.119 16.4822L170.296 16.0564Z" fill="#F3B304"/>
<path d="M127.474 126.834C127.983 123.079 122.533 119.628 115.281 118.389C108.937 117.305 102.634 118.751 100.575 121.596L114.138 58.1059C115.396 52.4213 118.531 47.3394 123.027 43.6974C127.522 40.0554 133.111 38.0705 138.871 38.0696H194.263C198.667 38.0701 202.972 39.3942 206.63 41.8736C210.288 44.353 213.136 47.8759 214.81 51.9949L242.761 123.803C241.222 120.333 234.883 119.312 228.285 121.555C221.509 123.858 216.464 128.797 217.621 132.549L194.78 82.041L194.033 99.3895L200.068 132.516C200.068 132.516 200.79 149.107 178.269 149.787C154.368 150.506 142.035 133.232 142.035 133.232L131.371 147.334V107.403L127.474 126.834Z" fill="#F5BBBB"/>
<path d="M154.447 30.5181H174.728C175.213 30.5188 175.688 30.6563 176.099 30.9153C176.511 31.1742 176.843 31.5442 177.058 31.9836L180.019 38.0671H148.683L152.191 31.8426C152.418 31.4401 152.746 31.1055 153.142 30.8728C153.539 30.6402 153.989 30.5178 154.447 30.5181Z" fill="#F5BBBB"/>
<path d="M217.058 132.898C215.833 128.924 220.82 123.69 227.996 121.251C234.99 118.876 241.703 119.954 243.336 123.634L239.404 113.796C237.728 110.019 231.2 108.542 224.012 110.987C216.629 113.492 211.16 118.865 212.407 122.946L217.058 132.898Z" stroke="white" stroke-width="4" stroke-linejoin="round"/>
<path d="M124.879 42.8121C124.879 42.8121 137.78 44.532 140.272 61.1752H196.022" stroke="white" stroke-width="4" stroke-linecap="round" stroke-linejoin="round"/>
<path d="M128.12 125.783L140.309 61.1613" stroke="white" stroke-width="4" stroke-linecap="round" stroke-linejoin="round"/>
<path d="M194.788 83.8688L197.271 57.7824" stroke="white" stroke-width="4" stroke-linecap="round" stroke-linejoin="round"/>
<path d="M129.574 119.34L127.786 127.036C128.513 123.209 122.661 119.647 115.281 118.386C108.147 117.167 101.149 119.152 99.9952 122.725L101.83 114.476C102.604 110.635 109.9 108.548 117.31 109.814C124.72 111.081 130.348 115.502 129.574 119.34Z" stroke="white" stroke-width="4" stroke-linejoin="round"/>
<path d="M179.664 37.7074H148.683" stroke="white" stroke-width="4" stroke-miterlimit="10" stroke-linecap="round"/>
</g>
<defs>
<clipPath id="clip0_17_301">
<rect width="646" height="355" fill="white" transform="translate(-25)"/>
</clipPath>
</defs>
</svg>
