<svg width="209" height="75" viewBox="0 0 209 75" fill="none" xmlns="http://www.w3.org/2000/svg">
<path d="M25.1346 16L19.2066 0.423999H21.7506L26.8146 14.032H26.0946L30.9426 0.423999H33.5346L38.3826 14.032H37.6626L42.7266 0.423999H45.2226L39.3426 16H36.7026L31.9026 2.176H32.5986L27.7746 16H25.1346ZM49.9511 9.256V13.912H60.0311V16H47.5991V0.423999H60.0071V2.512H49.9511V7.216H58.1831V9.256H49.9511ZM65.7246 0.423999V13.912H74.9166V16H63.3726V0.423999H65.7246ZM92.247 10.672C92.103 11.824 91.703 12.824 91.047 13.672C90.391 14.504 89.543 15.144 88.503 15.592C87.463 16.04 86.263 16.264 84.903 16.264C83.703 16.264 82.599 16.088 81.591 15.736C80.583 15.368 79.703 14.84 78.951 14.152C78.215 13.448 77.639 12.6 77.223 11.608C76.807 10.616 76.599 9.488 76.599 8.224C76.599 6.96 76.807 5.832 77.223 4.84C77.639 3.848 78.215 3.008 78.951 2.32C79.703 1.616 80.583 1.08 81.591 0.711999C82.599 0.343999 83.703 0.159999 84.903 0.159999C86.263 0.159999 87.463 0.391999 88.503 0.855999C89.559 1.304 90.415 1.952 91.071 2.8C91.727 3.632 92.127 4.64 92.271 5.824H90.039C89.815 5.072 89.463 4.432 88.983 3.904C88.503 3.376 87.919 2.976 87.231 2.704C86.543 2.416 85.767 2.272 84.903 2.272C83.815 2.272 82.823 2.504 81.927 2.968C81.031 3.416 80.311 4.088 79.767 4.984C79.239 5.864 78.975 6.944 78.975 8.224C78.975 9.504 79.239 10.584 79.767 11.464C80.311 12.344 81.031 13.016 81.927 13.48C82.823 13.928 83.815 14.152 84.903 14.152C85.767 14.152 86.535 14.016 87.207 13.744C87.895 13.472 88.479 13.08 88.959 12.568C89.439 12.04 89.791 11.408 90.015 10.672H92.247ZM103.116 16.264C101.468 16.264 100.012 15.936 98.7482 15.28C97.5002 14.624 96.5162 13.696 95.7962 12.496C95.0762 11.296 94.7162 9.872 94.7162 8.224C94.7162 6.56 95.0762 5.128 95.7962 3.928C96.5162 2.728 97.5002 1.8 98.7482 1.144C100.012 0.487999 101.468 0.159999 103.116 0.159999C104.748 0.159999 106.196 0.487999 107.46 1.144C108.724 1.8 109.708 2.728 110.412 3.928C111.132 5.128 111.492 6.56 111.492 8.224C111.492 9.872 111.132 11.296 110.412 12.496C109.708 13.696 108.724 14.624 107.46 15.28C106.196 15.936 104.748 16.264 103.116 16.264ZM103.116 14.152C104.268 14.152 105.292 13.928 106.188 13.48C107.084 13.032 107.796 12.368 108.324 11.488C108.852 10.608 109.116 9.52 109.116 8.224C109.116 6.912 108.852 5.824 108.324 4.96C107.796 4.08 107.084 3.416 106.188 2.968C105.292 2.504 104.268 2.272 103.116 2.272C101.98 2.272 100.956 2.504 100.044 2.968C99.1322 3.416 98.4122 4.08 97.8842 4.96C97.3562 5.824 97.0922 6.912 97.0922 8.224C97.0922 9.52 97.3562 10.608 97.8842 11.488C98.4122 12.368 99.1322 13.032 100.044 13.48C100.956 13.928 101.98 14.152 103.116 14.152ZM124.639 14.704H123.631L131.335 0.423999H133.687V16H131.335V4.072L131.863 4.192L125.383 16H122.911L116.431 4.24L116.959 4.096V16H114.607V0.423999H116.959L124.639 14.704ZM139.834 9.256V13.912H149.914V16H137.482V0.423999H149.89V2.512H139.834V7.216H148.066V9.256H139.834ZM156.08 0.423999H169.856V2.512H156.08V0.423999ZM161.792 2.272H164.144V16H161.792V2.272ZM178.679 16.264C177.031 16.264 175.575 15.936 174.311 15.28C173.063 14.624 172.079 13.696 171.359 12.496C170.639 11.296 170.279 9.872 170.279 8.224C170.279 6.56 170.639 5.128 171.359 3.928C172.079 2.728 173.063 1.8 174.311 1.144C175.575 0.487999 177.031 0.159999 178.679 0.159999C180.311 0.159999 181.759 0.487999 183.023 1.144C184.287 1.8 185.271 2.728 185.975 3.928C186.695 5.128 187.055 6.56 187.055 8.224C187.055 9.872 186.695 11.296 185.975 12.496C185.271 13.696 184.287 14.624 183.023 15.28C181.759 15.936 180.311 16.264 178.679 16.264ZM178.679 14.152C179.831 14.152 180.855 13.928 181.751 13.48C182.647 13.032 183.359 12.368 183.887 11.488C184.415 10.608 184.679 9.52 184.679 8.224C184.679 6.912 184.415 5.824 183.887 4.96C183.359 4.08 182.647 3.416 181.751 2.968C180.855 2.504 179.831 2.272 178.679 2.272C177.543 2.272 176.519 2.504 175.607 2.968C174.695 3.416 173.975 4.08 173.447 4.96C172.919 5.824 172.655 6.912 172.655 8.224C172.655 9.52 172.919 10.608 173.447 11.488C173.975 12.368 174.695 13.032 175.607 13.48C176.519 13.928 177.543 14.152 178.679 14.152ZM4.82063 60.272V70.4H23.1086V74H0.980625V42.8H23.0606V46.4H4.82063V56.672H19.7486V60.272H4.82063ZM33.2648 65.84V62.24H48.2408V65.84H33.2648ZM26.9288 74L38.7848 42.8H42.8168L54.7688 74H50.6407L40.2248 45.776H41.3768L30.9608 74H26.9288ZM57.4624 63.872H60.9184C61.0144 65.216 61.4144 66.416 62.1184 67.472C62.8224 68.528 63.7824 69.36 64.9984 69.968C66.2464 70.576 67.7024 70.88 69.3664 70.88C70.8064 70.88 72.0064 70.672 72.9664 70.256C73.9584 69.808 74.6944 69.2 75.1744 68.432C75.6864 67.664 75.9424 66.768 75.9424 65.744C75.9424 64.688 75.6864 63.84 75.1744 63.2C74.6624 62.56 73.9264 62.016 72.9664 61.568C72.0064 61.12 70.8704 60.688 69.5584 60.272C68.3104 59.888 67.0464 59.44 65.7664 58.928C64.4864 58.416 63.2864 57.792 62.1664 57.056C61.0784 56.32 60.1984 55.44 59.5264 54.416C58.8544 53.36 58.5184 52.096 58.5184 50.624C58.5184 49.184 58.9024 47.84 59.6704 46.592C60.4704 45.312 61.6224 44.288 63.1264 43.52C64.6624 42.72 66.5024 42.32 68.6464 42.32C72.0064 42.32 74.5184 43.232 76.1824 45.056C77.8464 46.88 78.6464 49.296 78.5824 52.304H75.1264C75.0624 50.032 74.4224 48.4 73.2064 47.408C71.9904 46.416 70.4064 45.92 68.4544 45.92C66.8224 45.92 65.3984 46.304 64.1824 47.072C62.9664 47.808 62.3584 48.976 62.3584 50.576C62.3584 51.28 62.4864 51.904 62.7424 52.448C63.0304 52.96 63.4784 53.44 64.0864 53.888C64.7264 54.336 65.5744 54.784 66.6304 55.232C67.7184 55.648 69.0464 56.112 70.6144 56.624C71.6384 56.944 72.6784 57.328 73.7344 57.776C74.8224 58.224 75.8144 58.784 76.7104 59.456C77.6384 60.128 78.3744 60.992 78.9184 62.048C79.4944 63.072 79.7824 64.368 79.7824 65.936C79.7824 67.44 79.4144 68.848 78.6784 70.16C77.9744 71.44 76.8544 72.48 75.3184 73.28C73.8144 74.08 71.8624 74.48 69.4624 74.48C67.4144 74.48 65.6544 74.208 64.1824 73.664C62.7424 73.088 61.5584 72.352 60.6304 71.456C59.7024 70.56 58.9824 69.632 58.4704 68.672C57.9904 67.68 57.6704 66.752 57.5104 65.888C57.3504 65.024 57.3344 64.352 57.4624 63.872ZM108.823 42.8L97.7831 63.296V74H93.9431V63.296L82.9031 42.8H87.2231L96.7271 60.8H95.1911L104.503 42.8H108.823ZM144 42.944V48.272H120.096V56.624H139.68V61.616H120.096V74H113.712V42.944H144ZM155.674 42.944V68.672H176.314V74H149.29V42.944H155.674ZM208.936 42.944L195.304 64.208V74H188.872V64.208L175.24 42.944H182.632L194.104 61.52H190.264L201.544 42.944H208.936Z" fill="#505168"/>
</svg>
